<svg width="97.05mm" height="97.05mm" version="1.1" viewBox="0 0 97.05 97.05" xmlns="http://www.w3.org/2000/svg" xmlns:xlink="http://www.w3.org/1999/xlink">
<defs>
<radialGradient id="Unbenannter_Verlauf_88" cx="310.95" cy="530.25" r="124.83" gradientUnits="userSpaceOnUse">
<stop stop-color="#1c1564" offset=".31"/>
<stop stop-color="#1c1666" offset=".32"/>
<stop stop-color="#262e97" offset=".63"/>
<stop stop-color="#2c3cb6" offset=".87"/>
<stop stop-color="#2e42c1" offset="1"/>
</radialGradient>
<radialGradient id="Unbenannter_Verlauf_71" cx="240.12" cy="575.43" r="143.02" gradientTransform="matrix(1 0 0 .88 0 68.9)" gradientUnits="userSpaceOnUse">
<stop stop-color="#1c1564" offset=".4"/>
<stop stop-color="#1c1666" offset=".41"/>
<stop stop-color="#262e97" offset=".68"/>
<stop stop-color="#2c3cb6" offset=".89"/>
<stop stop-color="#2e42c1" offset="1"/>
</radialGradient>
<radialGradient id="Unbenannter_Verlauf_88-2" cx="282.73" cy="396.99" r="197.4" gradientTransform="matrix(.26458 0 0 .26458 -17.901 -88.428)" xlink:href="#Unbenannter_Verlauf_88"/>
<linearGradient id="Unbenannter_Verlauf_534" x1="-615.88" x2="-615.88" y1="1168" y2="1168" gradientTransform="matrix(-.33 .94 .94 .33 -877.63 787.95)" gradientUnits="userSpaceOnUse">
<stop stop-color="#283fa3" offset="0"/>
<stop stop-color="#1b1464" offset="1"/>
</linearGradient>
<linearGradient id="Unbenannter_Verlauf_87" x1="176.53" x2="454.66" y1="492.28" y2="552.49" gradientUnits="userSpaceOnUse">
<stop stop-color="#46ffd7" offset="0"/>
<stop stop-color="#3ecfe7" offset=".28"/>
<stop stop-color="#3dc5e5" offset=".3"/>
<stop stop-color="#399cdc" offset=".39"/>
<stop stop-color="#367ed6" offset=".47"/>
<stop stop-color="#346cd2" offset=".54"/>
<stop stop-color="#3365d1" offset=".59"/>
<stop stop-color="#3465d1" offset=".6"/>
<stop stop-color="#6469cb" offset=".69"/>
<stop stop-color="#8a6cc6" offset=".78"/>
<stop stop-color="#a66ec2" offset=".87"/>
<stop stop-color="#b670c0" offset=".94"/>
<stop stop-color="#bc70bf" offset="1"/>
</linearGradient>
<linearGradient id="Unbenannter_Verlauf_89" x1="146.41" x2="386.39" y1="597.16" y2="387.72" gradientUnits="userSpaceOnUse">
<stop stop-color="#46ffd7" offset="0"/>
<stop stop-color="#3ecfe7" offset=".31"/>
<stop stop-color="#3365d1" offset=".72"/>
<stop stop-color="#3765d0" offset=".77"/>
<stop stop-color="#4566cf" offset=".82"/>
<stop stop-color="#5a68cc" offset=".87"/>
<stop stop-color="#796bc8" offset=".92"/>
<stop stop-color="#a06ec3" offset=".97"/>
<stop stop-color="#bc70bf" offset="1"/>
</linearGradient>
<linearGradient id="Unbenannter_Verlauf_87-2" x1="261.19" x2="425.7" y1="498.29" y2="639.9" gradientTransform="matrix(.26458 0 0 .26458 -17.901 -88.428)" xlink:href="#Unbenannter_Verlauf_87"/>
<radialGradient id="Unbenannter_Verlauf_88-3" cx="309.5" cy="530.78" r="122.61" gradientTransform="matrix(.26458 0 0 .26458 -17.901 -88.428)" xlink:href="#Unbenannter_Verlauf_88"/>
<radialGradient id="Unbenannter_Verlauf_71-2" cx="239.93" cy="575.15" r="140.48" gradientTransform="matrix(.26458 0 0 .26458 -17.901 -88.428)" xlink:href="#Unbenannter_Verlauf_71"/>
<radialGradient id="Unbenannter_Verlauf_88-4" cx="281.79" cy="399.89" r="193.89" gradientTransform="matrix(.26458 0 0 .26458 -17.901 -88.428)" xlink:href="#Unbenannter_Verlauf_88"/>
<linearGradient id="Unbenannter_Verlauf_534-2" x1="-615.23" x2="-615.23" y1="1164.5" y2="1164.5" gradientTransform="matrix(.26458 0 0 .26458 -17.901 -88.428)" xlink:href="#Unbenannter_Verlauf_534"/>
<linearGradient id="Unbenannter_Verlauf_87-3" x1="177.47" x2="450.66" y1="493.49" y2="552.62" gradientTransform="matrix(.26458 0 0 .26458 -17.901 -88.428)" xlink:href="#Unbenannter_Verlauf_87"/>
<linearGradient id="Unbenannter_Verlauf_89-2" x1="147.89" x2="383.6" y1="596.5" y2="390.78" gradientTransform="matrix(.26458 0 0 .26458 -17.927 -89.01)" xlink:href="#Unbenannter_Verlauf_89"/>
<linearGradient id="Unbenannter_Verlauf_87-4" x1="260.63" x2="422.21" y1="499.39" y2="638.48" gradientTransform="matrix(.26458 0 0 .26458 -17.901 -88.428)" xlink:href="#Unbenannter_Verlauf_87"/>
<radialGradient id="radialGradient3676" cx="310.95" cy="530.25" r="124.83" gradientTransform="matrix(.26458 0 0 .26458 -17.901 -88.428)" gradientUnits="userSpaceOnUse" xlink:href="#Unbenannter_Verlauf_88"/>
<radialGradient id="radialGradient3678" cx="240.12" cy="575.43" r="143.02" gradientTransform="matrix(.26458 0 0 .23283 -17.901 -70.198)" gradientUnits="userSpaceOnUse" xlink:href="#Unbenannter_Verlauf_71"/>
<linearGradient id="linearGradient3680" x1="-615.88" x2="-615.88" y1="1168" y2="1168" gradientTransform="matrix(-.087312 .24871 .24871 .087312 -250.11 120.05)" gradientUnits="userSpaceOnUse" xlink:href="#Unbenannter_Verlauf_534"/>
<linearGradient id="linearGradient3682" x1="176.53" x2="454.66" y1="492.28" y2="552.49" gradientTransform="matrix(.26458 0 0 .26458 -17.901 -88.428)" gradientUnits="userSpaceOnUse" xlink:href="#Unbenannter_Verlauf_87"/>
<linearGradient id="linearGradient3684" x1="146.41" x2="386.39" y1="597.16" y2="387.72" gradientTransform="matrix(.26458 0 0 .26458 -17.901 -88.428)" gradientUnits="userSpaceOnUse" xlink:href="#Unbenannter_Verlauf_89"/>
</defs>
<g transform="translate(-3.636 -2.88)" stroke-width=".26458">
<path class="cls-2" d="m78.249 80.509a24.5 24.5 0 0 0 5.9267-16.087c0-13.203-10.266-23.918-22.939-23.918a22.278 22.278 0 0 0-12.726 3.9952s6.059-9.3398 25.109-6.35 22.463 17.939 21.696 29.554a45.535 45.535 0 0 1-12.779 18.283z" fill="url(#radialGradient3676)"/>
<path class="cls-3" d="m82.482 86.012h-0.0265c-0.87313 0.74083-1.7462 1.4552-2.6723 2.1431-20.426 15.134-49.239 10.874-64.373-9.525a46.143 46.143 0 0 1-8.4402-19.87l17.304 5.6886a31.168 31.168 0 0 0 3.175 5.2917c7.8581 10.61 20.823 14.182 32.65 10.583a13.07 13.07 0 1 0-11.139-23.363s8.9429-7.329 20.902-3.175c0 0 11.483 3.6512 15.266 15.875 3.7835 12.224-2.6458 16.351-2.6458 16.351z" fill="url(#radialGradient3678)"/>
<path class="cls-4" d="m95.341 67.571a45.958 45.958 0 0 0-6.0325-43.736l-0.44979-0.55562-7.9904-4.101-27.861-4.9742-1.6669 6.0325a30.956 30.956 0 0 1 25.929 12.515 29.025 29.025 0 0 1 3.9158 7.1173l1.8521 0.89959 10.292 10.213 2.4606 10.927-0.39687 4.8683z" fill="url(#Unbenannter_Verlauf_88-2)"/>
<path class="cls-5" d="m95.314 67.756" fill="url(#linearGradient3680)"/>
<path class="cls-6" d="m95.314 67.703a31.247 31.247 0 1 0-59.955-1.0583 30.057 30.057 0 0 1 59.955 1.0583z" fill="url(#linearGradient3682)"/>
<path class="cls-7" d="m40.413 27.116c16.695-12.382 39.767-10.001 53.684 4.7625a45.059 45.059 0 0 0-4.7625-8.0169 46.011 46.011 0 1 0-40.614 73.21 40.428 40.428 0 0 1-16.748-13.176c-13.361-17.992-9.5779-43.418 8.4402-56.78z" fill="url(#linearGradient3684)"/>
<path class="cls-8" d="m82.456 86.039a22.225 22.225 0 0 0-28.998-33.523 21.722 21.722 0 0 0-4.4979 4.445 23.045 23.045 0 0 1 33.496 29.078z" fill="url(#Unbenannter_Verlauf_87-2)"/>
<circle class="cls-9" cx="52.161" cy="51.405" r="48.525" fill="#10052f"/>
<path class="cls-10" d="m77.614 80.139a24.024 24.024 0 0 0 5.8473-15.796c0-12.991-10.107-23.495-22.569-23.495a21.616 21.616 0 0 0-12.488 3.9423s5.9531-9.2075 24.659-6.2706c18.706 2.9369 22.093 17.648 21.325 29.051a44.794 44.794 0 0 1-12.568 17.939z" fill="url(#Unbenannter_Verlauf_88-3)"/>
<path class="cls-11" d="m81.768 85.536c0 0.0265 0 0.0265-0.0265 0.0529-0.84666 0.74083-1.7198 1.4552-2.6194 2.1167-20.055 14.87-48.366 10.663-63.209-9.3662a44.926 44.926 0 0 1-8.3079-19.553l17.013 5.6092a31.591 31.591 0 0 0 3.0956 5.1858c7.7258 10.425 20.452 13.944 32.068 10.398a12.859 12.859 0 1 0-10.927-22.939s8.7842-7.1967 20.532-3.1221c0 0 11.271 3.5983 15.002 15.584 3.7306 11.986-2.6194 16.034-2.6194 16.034z" fill="url(#Unbenannter_Verlauf_71-2)"/>
<path class="cls-12" d="m94.415 67.439a45.138 45.138 0 0 0-5.9531-42.968l-0.42333-0.55562-7.8581-4.0217-27.358-4.8683-1.6404 5.9002a30.348 30.348 0 0 1 29.342 19.315l1.7992 0.87313 10.107 10.028 2.4077 10.742-0.37042 4.789z" fill="url(#Unbenannter_Verlauf_88-4)"/>
<path class="cls-13" d="m94.388 67.624" fill="url(#Unbenannter_Verlauf_534-2)"/>
<path class="cls-14" d="m94.388 67.571a30.665 30.665 0 0 0-4.6302-27.49c-10.081-13.626-29.316-16.457-42.942-6.3765a30.745 30.745 0 0 0-11.324 32.808 29.528 29.528 0 0 1 58.896 1.0583z" fill="url(#Unbenannter_Verlauf_87-3)"/>
<path class="cls-15" d="m40.413 27.116a39.899 39.899 0 0 1 52.758 4.6831 45.191 45.191 0 0 0-4.6831-7.8846c-14.87-20.055-43.18-24.236-63.235-9.3927a45.164 45.164 0 0 0 23.336 81.306 39.793 39.793 0 0 1-16.457-12.938c-13.097-17.674-9.3927-42.651 8.2815-55.774z" fill="url(#Unbenannter_Verlauf_89-2)"/>
<path class="cls-16" d="m81.741 85.589a21.828 21.828 0 0 0-28.469-32.967 21.087 21.087 0 0 0-4.4185 4.3921 22.622 22.622 0 0 1 32.888 28.575z" fill="url(#Unbenannter_Verlauf_87-4)"/>
</g>
</svg>
